<svg width="170" height="37" viewBox="0 0 170 37" fill="none" xmlns="http://www.w3.org/2000/svg">
<path d="M0.56 29V0.799998H3.32L14.16 21.16L24.92 0.799998H27.68V29H24.64V6.96L15.24 24.64H13.08L3.56 7V29H0.56ZM41.1388 29.36C36.4721 29.36 34.1388 26.7867 34.1388 21.64V9.56H37.3788V21.6C37.3788 23.3333 37.7254 24.6133 38.4188 25.44C39.1388 26.2667 40.2588 26.68 41.7787 26.68C43.4321 26.68 44.7788 26.1333 45.8188 25.04C46.8588 23.92 47.3788 22.44 47.3788 20.6V9.56H50.6188V29H47.4588V25.72C46.8454 26.8933 45.9788 27.8 44.8588 28.44C43.7654 29.0533 42.5254 29.36 41.1388 29.36ZM63.2406 29.36C61.7206 29.36 60.2806 29.1467 58.9206 28.72C57.5606 28.2933 56.4406 27.6933 55.5606 26.92L56.6006 24.64C57.5606 25.4133 58.614 25.9867 59.7606 26.36C60.934 26.7067 62.1206 26.88 63.3206 26.88C64.8406 26.88 65.9873 26.6 66.7606 26.04C67.534 25.48 67.9206 24.72 67.9206 23.76C67.9206 23.0133 67.6673 22.4267 67.1606 22C66.654 21.5467 65.854 21.2 64.7606 20.96L61.1206 20.16C57.814 19.44 56.1606 17.7333 56.1606 15.04C56.1606 13.28 56.854 11.8667 58.2406 10.8C59.654 9.73333 61.494 9.2 63.7606 9.2C65.094 9.2 66.3606 9.41333 67.5606 9.84C68.7873 10.24 69.8006 10.84 70.6006 11.64L69.5206 13.92C68.7473 13.2 67.8406 12.6533 66.8006 12.28C65.7873 11.88 64.774 11.68 63.7606 11.68C62.2673 11.68 61.134 11.9733 60.3606 12.56C59.5873 13.1467 59.2006 13.92 59.2006 14.88C59.2006 16.3733 60.1873 17.3333 62.1606 17.76L65.8006 18.52C67.5073 18.8933 68.8006 19.4933 69.6806 20.32C70.5606 21.12 71.0006 22.2133 71.0006 23.6C71.0006 25.3867 70.294 26.8 68.8806 27.84C67.4673 28.8533 65.5873 29.36 63.2406 29.36ZM75.5384 4.72V1.08H79.5384V4.72H75.5384ZM75.9384 29V9.56H79.1784V29H75.9384ZM93.4753 29.36C91.5286 29.36 89.8486 28.9467 88.4353 28.12C87.022 27.2667 85.9286 26.08 85.1553 24.56C84.4086 23.0133 84.0353 21.2133 84.0353 19.16C84.0353 16.0667 84.8753 13.64 86.5553 11.88C88.2353 10.0933 90.542 9.2 93.4753 9.2C94.6753 9.2 95.862 9.41333 97.0353 9.84C98.2086 10.2667 99.182 10.8667 99.9553 11.64L98.8353 14C98.062 13.2533 97.2086 12.7067 96.2753 12.36C95.3686 12.0133 94.502 11.84 93.6753 11.84C91.6486 11.84 90.0886 12.48 88.9953 13.76C87.902 15.0133 87.3553 16.8267 87.3553 19.2C87.3553 21.52 87.902 23.36 88.9953 24.72C90.0886 26.0533 91.6486 26.72 93.6753 26.72C94.502 26.72 95.3686 26.5467 96.2753 26.2C97.2086 25.8533 98.062 25.2933 98.8353 24.52L99.9553 26.88C99.182 27.6533 98.1953 28.2667 96.9953 28.72C95.822 29.1467 94.6486 29.36 93.4753 29.36Z" fill="#242424"/>
<path d="M123.328 29L119.637 19.4492H108.523L104.832 29H101.102L112.234 0.914062H115.926L127.059 29H123.328ZM109.676 16.4414H118.484L114.07 5.01562L109.676 16.4414ZM134.07 36.8125H130.711V16.3438C130.711 14.0781 130.678 12.5872 130.613 11.8711C130.548 10.9857 130.398 10.0352 130.164 9.01953L133.406 8.29688C133.628 9.02604 133.79 9.76172 133.895 10.5039C134.025 11.4154 134.096 12.1185 134.109 12.6133H134.402C135.079 11.207 135.828 10.1719 136.648 9.50781C137.638 8.66146 138.862 8.23828 140.32 8.23828C141.596 8.23828 142.697 8.51823 143.621 9.07812C144.546 9.625 145.262 10.3932 145.77 11.3828C146.29 12.3724 146.668 13.4596 146.902 14.6445C147.15 15.8294 147.273 17.138 147.273 18.5703C147.273 20.1849 147.104 21.6367 146.766 22.9258C146.44 24.2148 145.932 25.3607 145.242 26.3633C144.552 27.3529 143.628 28.1211 142.469 28.668C141.31 29.2018 139.949 29.4688 138.387 29.4688C137.163 29.4688 135.724 29.306 134.07 28.9805V36.8125ZM134.07 16.9297V26.0117C135.542 26.4023 136.896 26.5977 138.133 26.5977C139.188 26.5977 140.092 26.4089 140.848 26.0312C141.616 25.6406 142.215 25.1003 142.645 24.4102C143.074 23.707 143.387 22.9258 143.582 22.0664C143.777 21.207 143.875 20.2435 143.875 19.1758C143.875 18.4466 143.855 17.8086 143.816 17.2617C143.79 16.7018 143.732 16.1029 143.641 15.4648C143.562 14.8138 143.432 14.2604 143.25 13.8047C143.068 13.349 142.84 12.9258 142.566 12.5352C142.293 12.1445 141.935 11.8516 141.492 11.6562C141.062 11.4479 140.561 11.3438 139.988 11.3438C138.608 11.3438 137.41 11.8971 136.395 13.0039C135.665 13.8112 134.891 15.1198 134.07 16.9297ZM155.828 36.8125H152.469V16.3438C152.469 14.0781 152.436 12.5872 152.371 11.8711C152.306 10.9857 152.156 10.0352 151.922 9.01953L155.164 8.29688C155.385 9.02604 155.548 9.76172 155.652 10.5039C155.783 11.4154 155.854 12.1185 155.867 12.6133H156.16C156.837 11.207 157.586 10.1719 158.406 9.50781C159.396 8.66146 160.62 8.23828 162.078 8.23828C163.354 8.23828 164.454 8.51823 165.379 9.07812C166.303 9.625 167.02 10.3932 167.527 11.3828C168.048 12.3724 168.426 13.4596 168.66 14.6445C168.908 15.8294 169.031 17.138 169.031 18.5703C169.031 20.1849 168.862 21.6367 168.523 22.9258C168.198 24.2148 167.69 25.3607 167 26.3633C166.31 27.3529 165.385 28.1211 164.227 28.668C163.068 29.2018 161.707 29.4688 160.145 29.4688C158.921 29.4688 157.482 29.306 155.828 28.9805V36.8125ZM155.828 16.9297V26.0117C157.299 26.4023 158.654 26.5977 159.891 26.5977C160.945 26.5977 161.85 26.4089 162.605 26.0312C163.374 25.6406 163.973 25.1003 164.402 24.4102C164.832 23.707 165.145 22.9258 165.34 22.0664C165.535 21.207 165.633 20.2435 165.633 19.1758C165.633 18.4466 165.613 17.8086 165.574 17.2617C165.548 16.7018 165.49 16.1029 165.398 15.4648C165.32 14.8138 165.19 14.2604 165.008 13.8047C164.826 13.349 164.598 12.9258 164.324 12.5352C164.051 12.1445 163.693 11.8516 163.25 11.6562C162.82 11.4479 162.319 11.3438 161.746 11.3438C160.366 11.3438 159.168 11.8971 158.152 13.0039C157.423 13.8112 156.648 15.1198 155.828 16.9297Z" fill="#4136C1"/>
</svg>
